<svg width="858" height="316" viewBox="0 0 858 316" fill="none" xmlns="http://www.w3.org/2000/svg">
<g clip-path="url(#clip0)">
<path d="M828.577 0.350183C828.417 0.590519 824.251 1.07119 819.444 1.55186C814.557 2.03254 808.148 2.75354 805.024 3.1541C797.333 4.19556 771.858 6.99948 764.968 7.64038C761.924 7.88071 756.877 8.4415 753.752 8.84206C750.708 9.24262 744.219 9.96363 739.332 10.4443C734.525 10.925 726.354 11.8062 721.307 12.4471C716.26 13.088 706.005 14.1295 698.475 14.8505C691.025 15.4914 681.972 16.4527 678.447 16.8533C674.922 17.2538 668.273 17.9748 663.626 18.4555C658.98 18.9362 650.728 19.8174 645.2 20.4583C639.673 21.0992 629.098 22.2208 621.567 22.8617C614.117 23.5026 606.506 24.3037 604.744 24.544C602.981 24.7844 597.774 25.265 593.128 25.6656C568.293 27.8286 551.069 29.7513 550.428 30.3922C549.867 30.953 550.188 36.721 551.389 47.4561C552.431 56.4286 553.552 66.6028 553.873 70.1278C554.273 73.6527 555.154 81.4236 555.875 87.3519C556.516 93.2801 557.478 101.772 557.878 106.178C558.359 110.584 559.24 119.557 559.881 126.206C560.602 132.775 561.483 141.988 561.884 146.635C562.845 157.37 563.486 161.055 564.207 161.055C564.528 161.055 565.809 158.491 567.011 155.447C571.497 144.071 582.072 132.936 594.329 126.927C601.78 123.242 605.465 122.281 617.161 120.919C624.612 120.038 636.388 120.518 638.791 121.8C639.593 122.201 641.756 122.601 643.518 122.601C645.281 122.601 646.963 122.922 647.203 123.402C647.444 123.803 648.405 124.203 649.206 124.203C652.811 124.203 664.507 131.734 670.275 137.662C674.521 142.148 680.45 149.919 680.45 151.281C680.45 151.842 680.77 152.884 681.171 153.685C682.533 156.248 684.455 160.895 684.455 161.616C684.455 162.096 685.016 163.538 685.737 164.98C686.779 167.063 686.939 169.787 686.698 179.801C686.538 186.771 686.058 192.539 685.577 193.18C685.176 193.821 683.734 197.025 682.453 200.31C679.809 207.28 677.245 211.606 673.48 215.531C672.038 217.053 670.596 218.816 670.356 219.537C669.154 222.982 650.808 233.957 646.242 233.957C644.96 233.957 643.358 234.518 642.557 235.078C640.153 236.921 621.407 237.562 613.156 236.04C599.376 233.636 596.813 232.675 587.119 226.026C584.956 224.504 581.752 222.02 580.069 220.418C576.785 217.374 570.616 209.042 569.495 206.318C568.293 203.114 568.053 206.959 569.014 215.05C569.575 219.537 570.296 226.346 570.696 230.352C571.177 234.277 571.978 242.208 572.619 247.976C573.26 253.664 574.221 262.317 574.622 267.203C575.102 272.01 575.984 281.223 576.625 287.632C577.265 294.041 578.067 302.613 578.387 306.699C578.627 311.025 579.348 314.55 579.909 315.191C580.951 316.232 581.431 316.232 599.937 314.069C627.976 310.864 636.869 309.823 643.598 309.182C647.764 308.782 654.093 308.141 657.618 307.74C661.143 307.34 667.792 306.538 672.439 306.058C677.085 305.577 685.337 304.696 690.864 304.055C696.392 303.414 704.644 302.533 709.29 302.132C732.282 299.809 751.028 297.886 763.766 296.444C772.498 295.483 790.283 293.64 807.027 292.038C814.317 291.317 822.248 290.356 824.651 289.875C841.875 286.27 855.174 272.25 857.658 254.946C858.619 248.537 858.298 242.369 855.895 222.741C855.495 219.457 854.613 210.965 853.892 203.915C853.171 196.865 852.29 188.373 851.889 185.089C850.207 172.191 848.204 153.204 845.881 129.811C844.279 112.908 843.237 103.134 841.875 91.758C840.433 79.9816 839.472 70.288 837.87 52.5031C837.149 44.9726 836.268 35.8398 835.867 32.0746C835.467 28.3093 834.746 20.0577 834.185 13.6488C833.624 7.23982 832.903 1.55186 832.422 0.991079C831.701 0.109847 829.298 -0.370826 828.577 0.350183ZM740.534 58.5115C740.534 58.9922 742.937 59.3126 746.142 59.3126C749.346 59.3126 751.749 59.6331 751.749 60.1138C751.749 60.5143 753.191 60.9149 754.954 60.9149C756.716 60.9149 758.158 61.2353 758.158 61.716C758.158 62.1166 758.879 62.5171 759.761 62.5171C760.642 62.5171 761.363 62.8376 761.363 63.3182C761.363 63.7188 762.324 64.1194 763.446 64.1194C765.529 64.1194 767.772 65.7216 767.772 67.2437C767.772 67.7244 768.253 67.8846 768.893 67.6443C770.255 67.0835 780.59 77.0975 780.59 78.9401C780.59 79.581 780.99 80.1418 781.391 80.1418C781.872 80.1418 782.192 80.8628 782.192 81.744C782.192 82.6252 782.593 83.3463 782.993 83.3463C783.474 83.3463 783.794 84.3877 783.794 85.7496C783.794 87.0314 784.195 88.153 784.595 88.153C785.076 88.153 785.396 91.1972 785.396 95.7636C785.396 100.33 785.076 103.374 784.595 103.374C784.195 103.374 783.794 104.095 783.794 104.977C783.794 105.858 783.474 106.579 782.993 106.579C782.593 106.579 782.192 107.14 782.192 107.78C782.192 109.863 775.302 116.192 772.979 116.192C771.858 116.192 770.976 116.513 770.976 116.993C770.976 117.394 769.214 117.794 766.971 117.794C764.808 117.794 762.965 118.115 762.965 118.596C762.965 119.076 758.96 119.397 752.551 119.397C746.142 119.397 742.136 119.717 742.136 120.198C742.136 120.598 741.575 120.999 740.934 120.999C740.293 120.999 739.733 120.598 739.733 120.198C739.733 119.717 737.409 119.397 734.445 119.397C730.44 119.397 729.398 119.637 729.879 120.358C730.199 120.919 730.36 131.574 730.199 143.991L729.959 166.663H733.324C736.929 166.663 739.332 164.74 741.655 160.013C742.376 158.571 744.379 155.447 746.061 153.044C747.824 150.64 750.147 147.035 751.189 145.033C752.31 143.03 753.912 140.706 754.874 139.905C755.835 139.024 756.556 137.983 756.556 137.582C756.556 137.182 758.239 134.217 760.321 131.093C762.404 127.969 764.728 124.364 765.449 123.002C767.211 119.797 769.614 119.397 780.99 120.038C790.123 120.598 790.604 120.678 790.844 122.361C791.004 123.402 790.444 124.684 789.482 125.565C788.521 126.286 787.8 127.248 787.8 127.648C787.8 128.61 783.634 134.458 780.67 137.742C779.308 139.264 778.186 140.787 778.186 141.107C778.186 141.508 777.145 143.03 775.783 144.472C774.501 145.994 772.258 148.878 770.816 150.881C764.888 159.292 760.081 165.621 757.758 168.265C756.396 169.787 754.794 172.271 754.153 173.793C753.111 176.436 753.111 176.597 755.515 178.439C756.877 179.481 770.095 192.379 784.996 207.039C804.303 226.186 811.914 234.197 811.673 235.319C811.433 236.601 810.311 236.841 802.22 237.161C797.173 237.402 792.126 237.402 791.084 237.322C789.883 237.081 780.109 227.948 762.885 210.644C737.009 184.688 736.608 184.287 733.404 184.287H730.119L729.959 210.885L729.719 237.562L721.227 237.802C714.257 237.962 712.414 237.802 711.373 236.761C710.251 235.559 710.091 229.711 710.011 179.24C710.011 148.317 709.691 122.281 709.29 121.399C708.729 120.038 708.569 120.038 708.569 121.159C708.489 122.441 707.367 122.601 696.873 122.601C689.663 122.601 685.256 122.281 685.256 121.8C685.256 121.319 683.814 120.999 682.052 120.999C680.289 120.999 678.847 120.598 678.847 120.198C678.847 119.717 678.126 119.397 677.245 119.397C676.364 119.397 675.643 118.996 675.643 118.596C675.643 118.115 674.201 117.794 672.439 117.794C670.676 117.794 669.234 117.394 669.234 116.993C669.234 116.513 668.513 116.192 667.632 116.192C666.751 116.192 666.03 115.792 666.03 115.391C666.03 114.91 664.988 114.59 663.786 114.59C662.505 114.59 661.063 113.949 660.422 112.988C659.781 112.106 658.339 111.385 657.217 111.385C656.096 111.385 654.654 110.664 654.013 109.783C653.372 108.902 652.411 108.181 651.85 108.181C650.328 108.181 641.996 99.6891 641.996 98.167C641.996 97.5261 641.675 96.9653 641.195 96.9653C640.794 96.9653 640.394 96.2443 640.394 95.3631C640.394 94.4818 640.073 93.7608 639.593 93.7608C639.192 93.7608 638.791 92.1586 638.791 90.1558C638.791 88.153 639.192 86.5507 639.593 86.5507C640.073 86.5507 640.394 85.8297 640.394 84.9485C640.394 84.0673 640.794 83.3463 641.195 83.3463C641.675 83.3463 641.996 82.7855 641.996 82.1446C641.996 80.6224 648.725 73.7328 650.247 73.7328C650.808 73.7328 651.77 73.0118 652.411 72.1306C653.051 71.1692 654.493 70.5283 655.775 70.5283C656.977 70.5283 658.018 70.1278 658.018 69.7272C658.018 69.2465 658.739 68.9261 659.621 68.9261C660.502 68.9261 661.223 68.5255 661.223 68.125C661.223 67.6443 661.944 67.3238 662.825 67.3238C663.706 67.3238 664.427 66.9233 664.427 66.4426C664.427 65.8818 665.869 65.6415 668.433 65.8818C671.397 66.0421 672.439 65.8818 672.439 65.0006C672.439 64.3597 672.999 64.1194 674.041 64.3597C675.082 64.6 675.643 64.3597 675.643 63.6387C675.643 62.8376 676.604 62.5171 678.847 62.5171C680.61 62.5171 682.052 62.1166 682.052 61.716C682.052 61.2353 684.215 60.9149 686.859 60.9149C689.502 60.9149 691.665 60.5944 691.665 60.1138C691.665 59.6331 694.63 59.3126 698.875 59.3126C703.121 59.3126 706.086 58.9922 706.086 58.5115C706.086 58.0309 712.334 57.7104 723.31 57.7104C734.285 57.7104 740.534 58.0309 740.534 58.5115Z" fill="white"/>
<path d="M769.374 69.2465C769.374 69.4067 769.935 69.9675 770.576 70.5283C771.297 71.0891 771.777 71.1692 771.777 70.6885C771.777 70.288 771.217 69.7272 770.576 69.4067C769.935 69.1664 769.374 69.0863 769.374 69.2465Z" fill="white"/>
<path d="M652.411 73.8129C652.411 74.2135 652.811 74.3737 653.212 74.1334C653.692 73.893 654.013 73.4925 654.013 73.2521C654.013 73.0919 653.692 72.9317 653.212 72.9317C652.811 72.9317 652.411 73.3323 652.411 73.8129Z" fill="white"/>
<path d="M647.524 77.4981L645.601 79.7412L647.844 77.8186C649.847 75.976 650.408 75.3351 649.767 75.3351C649.607 75.3351 648.645 76.2964 647.524 77.4981Z" fill="white"/>
<path d="M776.985 76.9373C777.225 77.3379 777.626 77.7384 777.866 77.7384C778.026 77.7384 778.186 77.3379 778.186 76.9373C778.186 76.4566 777.786 76.1362 777.305 76.1362C776.905 76.1362 776.744 76.4566 776.985 76.9373Z" fill="white"/>
<path d="M778.587 80.1418C778.827 80.5424 779.228 80.9429 779.468 80.9429C779.628 80.9429 779.789 80.5424 779.789 80.1418C779.789 79.6611 779.388 79.3407 778.907 79.3407C778.507 79.3407 778.347 79.6611 778.587 80.1418Z" fill="white"/>
<path d="M644.399 81.4236C644.399 82.0645 644.8 82.3849 645.2 82.1446C645.681 81.8242 645.841 81.2634 645.601 80.8628C644.88 79.7412 644.399 79.9816 644.399 81.4236Z" fill="white"/>
<path d="M780.189 83.3463C780.43 83.7468 780.83 84.1474 781.071 84.1474C781.231 84.1474 781.391 83.7468 781.391 83.3463C781.391 82.8656 780.99 82.5452 780.51 82.5452C780.109 82.5452 779.949 82.8656 780.189 83.3463Z" fill="white"/>
<path d="M642.797 84.628C642.797 85.2689 643.198 85.5894 643.598 85.3491C644.079 85.0286 644.239 84.4678 643.999 84.0673C643.278 82.9457 642.797 83.186 642.797 84.628Z" fill="white"/>
<path d="M641.435 90.1558C641.435 92.3188 641.595 93.2001 641.756 91.9183C641.916 90.7166 641.916 88.9541 641.756 87.9127C641.595 86.9513 641.435 87.9127 641.435 90.1558Z" fill="white"/>
<path d="M782.032 89.3547C781.792 90.4763 781.952 91.5978 782.272 91.8382C782.673 92.0785 782.993 91.1172 782.993 89.8354C782.993 86.7911 782.513 86.6309 782.032 89.3547Z" fill="white"/>
<path d="M642.797 95.8438C642.797 96.4847 643.198 96.8051 643.598 96.5648C644.079 96.2443 644.239 95.6835 643.999 95.283C643.278 94.1614 642.797 94.4017 642.797 95.8438Z" fill="white"/>
<path d="M644.399 99.0482C644.399 99.6891 644.8 100.01 645.2 99.7692C645.681 99.4488 645.841 98.888 645.601 98.4875C644.88 97.3659 644.399 97.6062 644.399 99.0482Z" fill="white"/>
<path d="M781.952 98.3272C781.791 98.7278 781.872 99.8493 782.272 100.971C782.833 102.813 782.833 102.813 782.913 100.33C782.993 97.8465 782.673 97.1255 781.952 98.3272Z" fill="white"/>
<path d="M647.203 102.573C648.004 103.454 648.805 104.175 649.046 104.175C649.286 104.175 648.805 103.454 648.004 102.573C647.203 101.692 646.402 100.971 646.162 100.971C645.921 100.971 646.402 101.692 647.203 102.573Z" fill="white"/>
<path d="M780.349 103.134C780.109 103.534 780.269 104.496 780.67 105.377C781.231 106.739 781.311 106.739 781.311 104.736C781.391 102.573 780.99 102.012 780.349 103.134Z" fill="white"/>
<path d="M650.408 104.977C650.167 105.377 650.488 105.778 651.129 105.778C651.85 105.778 652.41 106.018 652.41 106.419C652.41 106.739 653.212 107.46 654.253 108.101C655.615 108.982 655.535 108.662 653.692 106.659C650.968 103.855 651.049 103.855 650.408 104.977Z" fill="white"/>
<path d="M776.985 109.783C775.703 111.145 774.982 112.187 775.302 112.187C776.104 112.187 780.029 108.181 779.628 107.7C779.388 107.54 778.267 108.501 776.985 109.783Z" fill="white"/>
<path d="M660.422 111.385C660.422 111.786 660.822 112.187 661.303 112.187C661.703 112.187 661.864 111.786 661.623 111.385C661.383 110.905 660.982 110.584 660.742 110.584C660.582 110.584 660.422 110.905 660.422 111.385Z" fill="white"/>
<path d="M772.178 112.988C771.858 113.468 772.418 113.789 773.3 113.789C775.302 113.789 775.463 113.308 773.78 112.747C773.139 112.427 772.418 112.587 772.178 112.988Z" fill="white"/>
<path d="M668.433 114.59C668.433 114.991 668.833 115.391 669.314 115.391C669.715 115.391 669.875 114.991 669.635 114.59C669.394 114.109 668.994 113.789 668.753 113.789C668.593 113.789 668.433 114.109 668.433 114.59Z" fill="white"/>
<path d="M767.291 114.67C767.051 115.071 767.772 115.391 768.893 115.391C771.377 115.391 771.617 114.91 769.374 114.35C768.493 114.109 767.531 114.27 767.291 114.67Z" fill="white"/>
<path d="M759.28 116.272C759.04 116.673 760.001 116.993 761.283 116.993C762.645 116.993 763.766 116.833 763.766 116.673C763.766 116.032 759.681 115.631 759.28 116.272Z" fill="white"/>
<path d="M717.702 117.794C714.658 118.035 712.495 118.355 712.895 118.596C713.696 118.996 730.039 118.275 729.318 117.875C728.517 117.474 723.149 117.394 717.702 117.794Z" fill="white"/>
<path d="M0.538833 121.48C-0.903184 122.12 0.378609 124.844 6.46713 134.618C9.43127 139.264 12.3153 143.911 13.0363 145.033C13.6772 146.154 14.959 148.237 15.7601 149.759C16.5612 151.281 20.3265 157.37 24.0918 163.378C27.857 169.387 32.6638 177.157 34.7467 180.682C49.0066 204.796 52.0509 210.003 55.8963 215.771C61.2638 223.943 68.0733 230.833 73.0402 233.156C77.4464 235.319 85.2173 236.28 98.1153 236.28C104.685 236.36 107.729 236.04 108.29 235.319C108.69 234.838 109.491 231.794 109.972 228.75C110.773 223.703 111.334 220.017 114.058 201.912C116.461 186.45 119.265 168.666 122.469 148.798C124.472 136.541 126.074 125.485 126.074 124.203V121.8H117.342C107.248 121.8 108.129 121.079 106.848 130.612C106.447 133.897 105.566 140.226 104.845 144.632C103.403 154.245 102.922 156.969 99.317 180.682C97.7949 190.777 96.1125 201.271 95.712 203.915C95.2313 206.559 94.6705 210.404 94.35 212.487C93.7091 217.614 92.6677 218.255 86.3388 217.694C77.0458 216.973 78.9685 219.697 31.382 140.546C23.4509 127.168 19.7657 121.88 18.4839 121.48C16.401 120.919 1.90074 120.919 0.538833 121.48Z" fill="white"/>
<path d="M428.417 122.04C428.177 122.681 428.177 126.527 428.257 130.692L428.497 138.223L450.448 138.463C465.83 138.624 472.799 138.944 473.52 139.585C474.482 140.386 474.642 147.836 474.482 187.652C474.321 213.528 474.562 234.998 474.882 235.319C475.763 236.2 489.943 236.52 491.225 235.719C492.026 235.159 492.267 224.824 492.427 187.011L492.587 139.024L515.018 138.624L537.45 138.223L537.29 130.292C537.129 124.924 536.729 122.12 536.088 121.64C535.527 121.319 511.173 120.999 481.932 120.999C438.592 120.999 428.738 121.159 428.417 122.04Z" fill="white"/>
<path d="M195.371 122.281C185.437 123.723 172.86 128.529 167.092 133.176C157.639 140.867 150.268 151.442 146.984 162.257C144.26 171.149 144.18 185.089 146.743 194.221C149.868 205.277 157.158 216.092 166.451 223.462C171.498 227.468 182.153 233.156 184.636 233.156C185.357 233.156 187.28 233.717 188.802 234.357C191.045 235.239 195.131 235.559 206.186 235.559C217.242 235.559 221.328 235.239 223.571 234.357C225.093 233.717 227.016 233.156 227.737 233.156C230.22 233.156 240.875 227.468 245.922 223.462C255.696 215.691 262.906 204.796 266.03 193.1C268.193 185.089 267.953 170.348 265.549 162.657C259.701 143.591 244.4 128.85 225.413 123.883C220.366 122.521 200.739 121.48 195.371 122.281ZM217.723 140.626C240.234 145.433 254.734 166.823 249.126 187.091C245.201 201.351 236.629 210.885 223.01 216.172C219.165 217.614 200.579 218.335 194.57 217.214C183.595 215.131 173.1 207.76 167.973 198.547C163.647 190.777 162.605 186.931 162.605 178.68C162.605 166.903 166.531 158.091 175.103 150.24C185.277 141.107 202.021 137.342 217.723 140.626Z" fill="white"/>
<path d="M315.94 122.922C304.003 125.565 295.271 134.057 292.227 145.914C288.461 160.735 296.473 175.235 311.614 180.763C315.059 182.044 319.305 182.285 347.584 182.685L379.709 183.086L383.635 185.89C388.441 189.415 392.046 195.663 392.046 200.63C391.966 205.277 389.082 210.484 384.516 214.249L380.67 217.534L337.65 217.935L294.71 218.335L294.31 226.186C294.069 230.432 294.069 234.357 294.149 234.758C294.31 235.239 310.252 235.559 337.81 235.559C377.226 235.479 381.632 235.399 385.237 234.117C391.405 231.874 394.37 230.112 399.096 225.625C406.066 219.056 409.671 210.484 409.671 200.39C409.671 184.207 398.616 170.348 382.353 166.342C378.027 165.301 372.098 165.061 348.385 165.061C320.266 165.061 319.625 165.061 316.1 163.218C313.136 161.776 312.095 160.654 310.492 157.21C309.05 154.005 308.73 152.243 309.13 150.16C309.771 146.394 314.498 141.267 318.183 140.226C320.026 139.745 337.089 139.425 362.645 139.425H404.063V130.612V121.8L362.245 121.88C332.363 121.88 319.064 122.201 315.94 122.922Z" fill="white"/>
<path d="M612.515 141.828C599.456 143.751 587.6 153.124 583.274 165.061C580.149 173.873 579.989 181.884 582.953 191.097C586.639 202.713 596.492 211.846 609.711 215.852C613.877 217.133 616.28 217.294 625.333 216.893C636.228 216.412 639.192 215.771 646.723 212.006C652.571 209.042 658.819 202.313 662.184 195.503C666.11 187.332 666.831 184.688 666.831 178.039C666.831 171.95 666.59 170.989 662.184 161.936C658.739 154.806 650.888 147.356 644.079 144.552C636.228 141.347 623.41 140.226 612.515 141.828Z" fill="white"/>
<path d="M187.2 263.358C186.639 263.518 186.158 264.96 186.158 266.482C186.158 268.645 185.838 269.206 184.636 269.206C181.752 269.206 180.551 270.168 180.551 272.411C180.551 274.654 181.752 275.615 184.636 275.615C186.078 275.615 186.158 276.336 186.158 290.115C186.158 305.978 186.559 307.74 190.965 310.384C194.17 312.226 200.178 312.066 202.181 310.063C203.943 308.301 204.104 307.74 203.062 306.138C202.581 305.417 201.54 305.177 200.098 305.497C196.012 306.298 193.529 305.337 192.647 302.613C192.167 301.331 191.766 294.682 191.766 287.952C191.766 277.538 191.926 275.615 192.968 275.535C193.609 275.455 194.57 275.295 194.971 275.215C195.451 275.135 197.214 274.974 198.976 274.894C201.219 274.814 202.421 274.414 202.742 273.532C203.703 270.969 201.86 269.607 196.893 269.206C192.567 268.806 192.167 268.645 191.926 266.803C191.766 265.681 191.045 264.319 190.324 263.759C188.962 262.717 188.722 262.717 187.2 263.358Z" fill="white"/>
<path d="M278.928 263.679C277.566 264.4 277.486 266.402 277.486 286.671C277.486 302.933 277.726 309.182 278.447 309.903C279.649 311.105 282.052 311.185 282.693 310.063C283.014 309.583 283.174 299.008 283.094 286.591C283.014 262.236 282.854 261.355 278.928 263.679Z" fill="white"/>
<path d="M228.618 271.289C223.651 274.173 222.369 275.455 220.046 279.941C218.444 283.066 218.043 285.068 218.043 290.115C218.043 295.483 218.364 297.085 220.286 301.011C223.971 308.141 230.38 311.666 239.914 311.666C245.842 311.666 255.055 305.978 255.055 302.292C255.055 300.77 250.889 298.928 250.408 300.29C249.928 301.812 244.64 304.936 241.516 305.657C237.11 306.619 232.063 305.417 228.858 302.613C225.894 300.049 223.811 296.124 223.811 293.32C223.811 291.718 224.372 291.638 240.074 291.477L256.257 291.237L256.497 288.033C257.058 281.303 252.732 274.093 246.162 270.728C241.516 268.405 233.264 268.645 228.618 271.289ZM241.676 274.974C246.002 276.256 250.248 280.582 250.248 283.546C250.248 284.908 249.767 286.03 248.966 286.35C247.044 287.071 225.974 286.911 224.692 286.11C223.25 285.149 224.212 282.585 227.256 279.06C231.422 274.333 235.508 273.132 241.676 274.974Z" fill="white"/>
<path d="M315.7 270.889C307.849 275.054 304.244 281.704 304.484 291.477C304.724 301.011 310.172 308.461 318.664 310.624C326.595 312.707 333.805 311.185 338.772 306.458C341.896 303.574 342.297 301.732 340.134 300.53C338.932 299.889 337.811 300.29 334.846 302.453C326.274 308.541 316.26 306.618 311.934 297.966C311.053 296.284 310.332 294.201 310.332 293.24C310.332 291.718 310.733 291.638 326.274 291.638C338.772 291.638 342.377 291.397 343.098 290.516C344.139 289.234 342.457 280.502 340.695 278.179C335.487 271.289 331.642 269.206 324.192 269.206C320.346 269.286 317.863 269.767 315.7 270.889ZM331.161 276.016C335.567 278.259 338.451 285.229 335.487 286.35C334.766 286.59 329.399 286.831 323.551 286.831C311.934 286.831 310.332 286.59 310.332 284.508C310.332 282.505 315.78 276.416 318.664 275.134C321.628 273.773 327.636 274.173 331.161 276.016Z" fill="white"/>
<path d="M372.739 271.449C369.535 273.052 367.532 274.894 365.209 278.339C362.084 282.905 362.004 283.146 362.004 289.875C362.004 296.124 362.245 297.245 364.328 300.77C368.894 308.541 373.22 311.025 382.513 311.185C387.961 311.265 388.922 311.025 392.527 308.862C395.411 307.019 396.453 305.898 396.453 304.536C396.453 302.212 394.129 300.53 392.527 301.652C387.4 305.417 386.759 305.657 382.273 305.577C376.745 305.497 372.419 303.014 369.535 298.367C368.093 295.964 367.692 294.201 367.692 290.035C367.692 283.707 369.214 280.502 373.701 277.298C379.228 273.292 386.519 273.292 391.005 277.458C392.607 278.82 393.168 278.98 394.93 278.179C397.814 276.817 397.174 275.054 392.527 271.85C389.002 269.447 388.121 269.206 382.833 269.206C378.027 269.206 376.264 269.607 372.739 271.449Z" fill="white"/>
<path d="M425.053 270.408C418.724 273.132 414.958 277.458 413.036 284.107C409.671 295.803 416.641 308.141 428.177 310.864C434.265 312.306 442.517 310.784 446.523 307.5C450.128 304.616 453.572 298.687 454.053 294.762C455.415 284.347 452.13 276.577 444.119 271.85C440.274 269.447 439.152 269.206 433.705 269.206C430.34 269.286 426.575 269.767 425.053 270.408ZM440.915 276.336C442.437 277.137 444.76 279.22 446.042 281.063C448.045 283.947 448.365 285.068 448.365 289.875C448.365 296.524 446.523 300.129 441.556 303.414C434.746 307.98 424.171 305.337 420.246 298.207C416.481 291.477 418.564 280.742 424.332 276.977C429.138 273.853 435.547 273.532 440.915 276.336Z" fill="white"/>
<path d="M476.004 270.087C474.722 270.808 474.562 272.651 474.562 289.955C474.562 310.143 474.802 311.425 478.327 310.704C479.609 310.464 479.849 309.182 480.25 298.848C480.81 286.11 481.531 282.585 484.095 278.98C485.777 276.577 490.824 274.013 493.869 274.013C496.112 274.013 499.877 276.096 500.678 277.778C501.079 278.579 501.559 286.03 501.8 294.361C502.12 307.66 502.361 309.583 503.642 310.384C504.604 311.025 505.405 311.025 506.446 310.384C507.648 309.583 507.888 307.74 508.209 295.964C508.689 278.419 510.131 275.455 518.703 274.413C522.789 273.853 525.273 274.974 527.756 278.259C529.278 280.342 529.438 281.944 529.839 295.483C530.24 309.102 530.4 310.464 531.682 310.704C535.046 311.345 535.447 309.743 535.447 296.685C535.447 283.146 534.646 278.179 531.682 274.173C528.958 270.568 525.914 269.206 520.226 269.206C514.778 269.206 513.016 269.847 509.25 273.452L506.687 275.856L503.082 272.571C499.637 269.366 499.156 269.206 494.59 269.206C489.623 269.206 484.736 270.969 482.653 273.532C481.211 275.295 480.17 275.135 480.17 273.292C480.17 269.527 478.728 268.485 476.004 270.087Z" fill="white"/>
<path d="M804.623 45.6936H667.632V120.198H804.623V45.6936Z" fill="white"/>
<path d="M686.859 55.3071H627.576V119.397H686.859V55.3071Z" fill="white"/>
<path d="M709.29 107.38H676.444V126.607H709.29V107.38Z" fill="white"/>
<path d="M743.738 112.988H738.932V122.601H743.738V112.988Z" fill="white"/>
</g>
<defs>
<clipPath id="clip0">
<rect width="858" height="315.641" fill="white"/>
</clipPath>
</defs>
</svg>
