<svg width="20" height="20" viewBox="0 0 20 20" fill="none" xmlns="http://www.w3.org/2000/svg">
<path d="M2.50001 17.5C2.27899 17.5 2.06703 17.4122 1.91075 17.2559C1.75447 17.0996 1.66667 16.8877 1.66667 16.6667V3.33333C1.66667 3.11232 1.75447 2.90036 1.91075 2.74408C2.06703 2.5878 2.27899 2.5 2.50001 2.5H8.67834L10.345 4.16667H16.6667C16.8877 4.16667 17.0996 4.25446 17.2559 4.41074C17.4122 4.56702 17.5 4.77899 17.5 5V7.5H15.8333V5.83333H9.65501L7.98834 4.16667H3.33334V14.165L4.58334 9.16667H18.75L16.825 16.8692C16.7799 17.0494 16.6758 17.2093 16.5293 17.3236C16.3829 17.4379 16.2024 17.5 16.0167 17.5H2.50001ZM16.615 10.8333H5.885L4.635 15.8333H15.365L16.615 10.8333Z" fill="#191B1D" fill-opacity="0.2"/>
</svg>
