<svg width="20" height="20" viewBox="0 0 20 20" fill="none" xmlns="http://www.w3.org/2000/svg">
<path d="M5.09666 16.7391C4.03335 15.9665 3.16817 14.953 2.57198 13.7816C1.97579 12.6103 1.66555 11.3143 1.66666 9.99996C1.66666 5.39746 5.39749 1.66663 9.99999 1.66663C14.6025 1.66663 18.3333 5.39746 18.3333 9.99996C18.3344 11.3143 18.0242 12.6103 17.428 13.7816C16.8318 14.953 15.9666 15.9665 14.9033 16.7391L14.0575 15.29C15.1628 14.4421 15.9748 13.2693 16.3793 11.9363C16.7839 10.6033 16.7607 9.17702 16.313 7.85785C15.8654 6.53869 15.0157 5.3929 13.8834 4.58143C12.7511 3.76996 11.393 3.33357 9.99999 3.33357C8.60694 3.33357 7.24888 3.76996 6.11658 4.58143C4.98427 5.3929 4.13461 6.53869 3.68694 7.85785C3.23927 9.17702 3.21609 10.6033 3.62064 11.9363C4.02519 13.2693 4.83716 14.4421 5.94249 15.29L5.09666 16.7391ZM6.79166 13.835C6.00418 13.1761 5.43861 12.2909 5.17179 11.2994C4.90496 10.308 4.94983 9.25844 5.30028 8.29338C5.65073 7.32832 6.28979 6.49454 7.13061 5.90533C7.97144 5.31612 8.97327 5.00004 9.99999 5.00004C11.0267 5.00004 12.0285 5.31612 12.8694 5.90533C13.7102 6.49454 14.3493 7.32832 14.6997 8.29338C15.0502 9.25844 15.095 10.308 14.8282 11.2994C14.5614 12.2909 13.9958 13.1761 13.2083 13.835L12.35 12.3633C12.8182 11.8979 13.1376 11.304 13.2678 10.6569C13.398 10.0097 13.3332 9.33848 13.0815 8.72824C12.8298 8.118 12.4025 7.59623 11.854 7.22908C11.3054 6.86193 10.6601 6.66594 9.99999 6.66594C9.33988 6.66594 8.69462 6.86193 8.14603 7.22908C7.59744 7.59623 7.17021 8.118 6.9185 8.72824C6.66679 9.33848 6.60194 10.0097 6.73217 10.6569C6.86239 11.304 7.18183 11.8979 7.64999 12.3633L6.79166 13.835ZM9.16666 10.8333H10.8333L11.6667 18.3333H8.33333L9.16666 10.8333Z" fill="#191B1D" fill-opacity="0.2"/>
</svg>
